<?xml version="1.0" standalone="no"?><!DOCTYPE svg PUBLIC "-//W3C//DTD SVG 1.1//EN" "http://www.w3.org/Graphics/SVG/1.1/DTD/svg11.dtd"><svg t="1586092980132" class="icon" viewBox="0 0 1024 1024" version="1.1" xmlns="http://www.w3.org/2000/svg" p-id="2281" xmlns:xlink="http://www.w3.org/1999/xlink" width="200" height="200"><defs><style type="text/css"></style></defs><path d="M511.913993 67.429531c-81.018646 0-159.285066 21.501764-228.262725 62.441122-38.531161-42.315471-94.607761-66.053418-158.424996-66.053418-11.69696 0-22.361834 6.364522-28.0383 16.685369-5.676466 10.320847-5.160423 22.705863 1.032085 32.510667 0.344028 0.516042 31.134554 49.712078 40.939358 128.150512-8.084663 27.350244-26.662187 65.193348-37.499076 94.263733-22.877877 62.441122-37.499076 116.453553-37.499076 179.582731 0 246.840249 200.912481 447.75273 447.75273 447.75273s447.75273-200.912481 447.75273-447.75273C959.666723 268.342012 758.926256 67.429531 511.913993 67.429531zM575.903242 479.919368c0 26.490173-21.501764 47.991937-47.991937 47.991937S479.919368 506.409541 479.919368 479.919368l0-63.989249c0-26.490173 21.501764-47.991937 47.991937-47.991937s47.991937 21.501764 47.991937 47.991937L575.903242 479.919368zM767.010919 479.919368c0 26.490173-21.501764 47.991937-47.991937 47.991937s-47.991937-21.501764-47.991937-47.991937l0-63.989249c0-26.490173 21.501764-47.991937 47.991937-47.991937s47.991937 21.501764 47.991937 47.991937L767.010919 479.919368z" p-id="2282" fill="#d4237a"></path></svg>